# xmcd CD database file generated by OrangeCD 6.5
#
# Track frame offsets:
#	150
#	17329
#	34441
#	53470
#	87620
#	104001
#	118388
#	135179
#	166333
#
# Disc length: 2413 seconds
#
# Revision: 4
# Processed by: cddbd v1.5.2PL0 Copyright (c) Steve Scherf et al.
# Submitted via: OrangeCD 6.5
#
DISCID=72096b09
DTITLE=Breakout - Kamienie
DYEAR=2005
DGENRE=Polish Classic Rock
TTITLE0=Czy zgadniesz
TTITLE1=Czulosc niose tobie
TTITLE2=Spiekota
TTITLE3=Modlitwa
TTITLE4=Badz sloncem
TTITLE5=Pojde prosto
TTITLE6=Kolo nego okna
TTITLE7=Kamienie
TTITLE8=Tobie ta piesn
EXTD=
EXTT0=
EXTT1=
EXTT2=
EXTT3=
EXTT4=
EXTT5=
EXTT6=
EXTT7=
EXTT8=
PLAYORDER=
